<svg width="100%" height="100%" viewBox="0 0 273 273" fill="none" xmlns="http://www.w3.org/2000/svg">
<mask id="path-1-outside-1" maskUnits="userSpaceOnUse" x="0.745167" y="0.745174" width="271.529" height="271.529" fill="black">
<rect fill="white" x="0.745167" y="0.745174" width="271.529" height="271.529"/>
<path fill-rule="evenodd" clip-rule="evenodd" d="M46 136.51L91.2548 91.2548L91.9619 90.5477L136.51 46L181.057 90.5477L181.764 91.2548L227.019 136.51L181.764 181.765L136.51 136.51L91.2548 181.765L46 136.51Z"/>
</mask>
<path fill-rule="evenodd" clip-rule="evenodd" d="M46 136.51L91.2548 91.2548L91.9619 90.5477L136.51 46L181.057 90.5477L181.764 91.2548L227.019 136.51L181.764 181.765L136.51 136.51L91.2548 181.765L46 136.51Z" fill="#34D399"/>
<path d="M46 136.51L23.3726 113.882L0.745167 136.51L23.3726 159.137L46 136.51ZM136.51 46L159.137 23.3726L136.51 0.745174L113.882 23.3726L136.51 46ZM227.019 136.51L249.647 159.137L272.274 136.51L249.647 113.882L227.019 136.51ZM181.764 181.765L159.137 204.392L181.764 227.019L204.392 204.392L181.764 181.765ZM136.51 136.51L159.137 113.882L136.51 91.2548L113.882 113.882L136.51 136.51ZM91.2548 181.765L68.6274 204.392L91.2548 227.019L113.882 204.392L91.2548 181.765ZM68.6274 68.6274L23.3726 113.882L68.6274 159.137L113.882 113.882L68.6274 68.6274ZM69.3345 67.9203L68.6274 68.6274L113.882 113.882L114.589 113.175L69.3345 67.9203ZM113.882 23.3726L69.3345 67.9203L114.589 113.175L159.137 68.6274L113.882 23.3726ZM203.685 67.9203L159.137 23.3726L113.882 68.6274L158.43 113.175L203.685 67.9203ZM158.43 113.175L159.137 113.882L204.392 68.6274L203.685 67.9203L158.43 113.175ZM159.137 113.882L204.392 159.137L249.647 113.882L204.392 68.6274L159.137 113.882ZM204.392 113.882L159.137 159.137L204.392 204.392L249.647 159.137L204.392 113.882ZM204.392 159.137L159.137 113.882L113.882 159.137L159.137 204.392L204.392 159.137ZM113.882 204.392L159.137 159.137L113.882 113.882L68.6274 159.137L113.882 204.392ZM23.3726 159.137L68.6274 204.392L113.882 159.137L68.6274 113.882L23.3726 159.137Z" fill="#0A0913" mask="url(#path-1-outside-1)"/>
<rect x="91.2548" y="181.765" width="64" height="64" transform="rotate(-45 91.2548 181.765)" fill="#FBFDFC" stroke="#0A0913" stroke-width="32"/>
</svg>
